<svg width="138" height="143" viewBox="0 0 138 143" fill="none" xmlns="http://www.w3.org/2000/svg">
<ellipse cx="69" cy="71.5" rx="69" ry="71.5" fill="white" fill-opacity="0.1"/>
<path d="M109.404 100.693C101.948 79.0531 94.3805 57.4579 86.8218 35.8539C85.7248 32.7383 83.6423 31.2206 80.2829 31.2831C72.7242 31.4259 65.1569 31.3992 57.5982 31.292C54.2559 31.2474 52.2934 32.8275 51.1879 36.0056C43.6977 57.4669 36.139 78.8924 28.6917 100.371C26.7549 105.951 29.1545 109.343 34.8963 109.415C41.6066 109.504 48.3083 109.433 55.0186 109.433C57.0326 109.433 59.0979 109.531 60.1692 107.192C61.1719 105.032 59.8178 103.532 58.7809 101.952C54.8387 95.9614 52.4562 89.3909 51.8306 82.1241C51.5564 78.8835 52.8933 77.3569 55.9356 77.348C60.212 77.3301 64.497 77.348 68.7734 77.348C68.7734 77.339 68.7734 77.3301 68.7734 77.3301C72.9127 77.3301 77.052 77.2676 81.1828 77.348C85.6306 77.4283 86.7447 78.8031 86.0933 83.4632C85.1335 90.3283 82.7168 96.6041 78.9631 102.353C76.2722 106.487 77.5577 109.317 82.2197 109.388C89.3499 109.513 96.4887 109.531 103.619 109.361C108.778 109.236 111.143 105.737 109.404 100.693ZM73.9411 56.9134C71.9015 59.4487 70.2732 62.0376 69.5447 65.3586C68.8677 68.4564 66.9823 68.5278 64.8827 66.4388C61.2319 62.7875 60.8034 56.0385 64.1799 51.3874C66.0739 48.7806 67.8393 46.3077 68.4735 42.9064C68.9877 40.1836 71.0188 39.9247 72.9127 41.9244C74.9952 44.1027 76.1436 46.7541 76.1008 50.1465C76.2807 52.5301 75.5266 54.9583 73.9411 56.9134Z" fill="white"/>
</svg>
