<svg width="60" height="60" viewBox="0 0 60 60" fill="none" xmlns="http://www.w3.org/2000/svg">
<g clip-path="url(#clip0_30_256)">
<path fill-rule="evenodd" clip-rule="evenodd" d="M44.5425 17.4725C43.66 16.2025 41.3 14.4175 37.4775 15.1875C35.2475 15.635 33.915 16.7375 33.0675 18.1925C32.165 19.7425 31.7275 21.85 31.7275 24.3025C31.7275 24.9655 31.4641 25.6014 30.9953 26.0703C30.5264 26.5391 29.8905 26.8025 29.2275 26.8025C23.3125 26.8025 17.6825 25.045 12.945 20.2925C12.5873 22.2207 12.4464 24.1829 12.525 26.1425C12.6575 28.8575 13.305 31.58 14.8425 33.9125C16.355 36.205 18.8425 38.305 23.0025 39.625C23.4101 39.7543 23.7778 39.986 24.0703 40.298C24.3628 40.6099 24.5704 40.9917 24.6732 41.4068C24.7761 41.8219 24.7707 42.2565 24.6576 42.6689C24.5446 43.0813 24.3276 43.4579 24.0275 43.7625C22.695 45.1292 21.1848 46.3106 19.5375 47.275C22.1875 47.55 24.7425 47.57 27.1125 47.355C31.9125 46.92 35.735 45.5475 38.125 43.605C43.1575 39.525 45.85 33.44 45.35 23.245C45.265 21.57 46.8825 19.7625 47.6625 18.39C46.485 18.61 45.305 18.57 44.5425 17.4725ZM11.485 12.46C11.9376 12.4074 12.396 12.4795 12.8106 12.6685C13.2253 12.8576 13.5803 13.1563 13.8375 13.5325C17.5275 18.93 21.9575 21.175 26.875 21.685C27.115 19.5825 27.6825 17.505 28.75 15.675C30.315 12.99 32.86 11.015 36.495 10.285C41.52 9.275 45.345 11.095 47.5625 13.3225L52.0425 12.485C52.5113 12.3972 52.9954 12.4453 53.4378 12.6236C53.8801 12.802 54.2622 13.1032 54.539 13.4916C54.8158 13.8801 54.9756 14.3396 54.9997 14.816C55.0238 15.2923 54.9111 15.7656 54.675 16.18L50.375 23.735C50.7675 34.6375 47.7375 42.2475 41.2775 47.49C37.8525 50.27 32.9475 51.8475 27.565 52.335C22.14 52.825 16.0075 52.2325 9.91249 50.4525C9.39172 50.3006 8.93449 49.9834 8.6098 49.5489C8.28511 49.1143 8.11059 48.5859 8.11256 48.0434C8.11454 47.5009 8.29291 46.9738 8.62075 46.5416C8.9486 46.1094 9.40812 45.7956 9.92999 45.6475C12.995 44.775 15.33 44.0225 17.4375 42.705C14.44 41.115 12.2325 39.035 10.67 36.665C8.49999 33.37 7.69499 29.695 7.53499 26.3825C7.37499 23.07 7.85249 20 8.35749 17.7875C8.64499 16.525 8.97999 15.26 9.44249 14.05C9.60563 13.6235 9.88248 13.2498 10.243 12.9695C10.6035 12.6892 11.0314 12.513 11.485 12.46Z" fill="#F8F8F8"/>
</g>
<defs>
<clipPath id="clip0_30_256">
<rect width="60" height="60" fill="white"/>
</clipPath>
</defs>
</svg>
